<?xml version="1.0" standalone="no"?>
<!DOCTYPE svg PUBLIC "-//W3C//DTD SVG 20010904//EN"
 "http://www.w3.org/TR/2001/REC-SVG-20010904/DTD/svg10.dtd">
<svg version="1.0" xmlns="http://www.w3.org/2000/svg"
 width="517.000000pt" height="517.000000pt" viewBox="0 0 517.000000 517.000000"
 preserveAspectRatio="xMidYMid meet">
<metadata>
Created by potrace 1.14, written by Peter Selinger 2001-2017
</metadata>
<g transform="translate(0.000000,517.000000) scale(0.100000,-0.100000)"
fill="#000000" stroke="none">
<path d="M2374 5134 c-19 -19 -34 -40 -34 -45 0 -23 -50 -20 -87 5 -58 40 -90
35 -148 -24 -56 -57 -73 -60 -140 -28 -63 31 -73 24 -114 -76 -20 -46 -22 -48
-53 -42 -135 26 -151 21 -187 -63 -23 -55 -35 -61 -127 -61 -37 0 -66 -5 -72
-12 -5 -7 -17 -37 -26 -67 -18 -62 -27 -71 -76 -71 -46 0 -101 -16 -112 -32
-4 -7 -8 -38 -8 -69 0 -69 -13 -83 -98 -103 -89 -20 -92 -25 -92 -116 0 -73
-2 -80 -26 -99 -15 -12 -45 -26 -68 -32 -71 -18 -86 -33 -86 -85 0 -24 6 -60
14 -79 13 -31 13 -36 -5 -59 -10 -13 -39 -34 -63 -46 -74 -35 -84 -64 -54
-155 28 -82 16 -113 -59 -162 -29 -20 -53 -43 -53 -51 0 -8 16 -43 35 -78 19
-34 35 -70 35 -79 0 -10 -27 -43 -60 -75 -33 -32 -60 -65 -60 -74 0 -9 23 -41
50 -71 31 -34 50 -64 50 -79 0 -14 -17 -44 -40 -71 -22 -25 -40 -54 -40 -63 0
-22 31 -69 59 -88 30 -21 53 -71 45 -96 -4 -12 -20 -43 -35 -69 -16 -25 -29
-53 -29 -61 0 -8 20 -27 43 -43 77 -48 98 -113 62 -188 -30 -64 -8 -98 80
-124 43 -12 59 -65 47 -156 -6 -48 -5 -70 2 -72 83 -22 104 -31 129 -56 29
-30 30 -32 23 -104 -6 -70 -5 -75 16 -89 13 -8 46 -18 73 -22 28 -3 62 -13 77
-21 25 -12 28 -19 28 -68 0 -65 19 -91 77 -100 82 -14 104 -26 120 -63 8 -19
13 -48 11 -63 l-4 -28 67 6 c95 8 116 1 129 -45 10 -37 30 -67 62 -91 13 -10
25 -9 62 3 57 19 90 9 114 -35 28 -52 63 -89 83 -89 10 0 36 9 56 20 21 11 46
20 56 20 19 0 52 -31 95 -89 26 -35 70 -42 93 -15 7 8 25 22 41 30 34 17 51
10 117 -48 55 -48 90 -50 133 -8 38 39 72 39 148 0 33 -16 69 -30 80 -30 11 0
39 20 62 45 23 25 52 45 63 45 11 0 38 -11 60 -25 60 -37 83 -33 145 25 68 63
91 70 146 41 56 -30 76 -22 121 46 20 30 50 61 66 69 26 14 34 14 82 -2 30 -9
61 -14 69 -11 7 3 24 35 36 71 11 35 27 67 33 69 7 3 47 2 90 -1 l77 -5 0 41
c0 59 33 94 108 115 76 21 102 51 102 116 0 26 5 52 12 59 7 7 35 12 63 12 77
0 88 13 95 109 7 92 21 115 80 131 21 6 50 20 65 32 28 21 28 22 22 109 -7 99
-8 97 76 139 70 34 75 46 47 112 -29 72 -22 99 40 158 70 66 72 73 38 139 -37
72 -32 95 37 169 l52 56 -43 64 c-60 87 -58 123 12 189 47 44 44 66 -15 108
-73 52 -78 79 -31 162 47 83 41 112 -32 149 -67 34 -74 56 -47 152 26 93 20
108 -55 150 -30 18 -63 43 -72 58 -16 24 -16 28 -1 60 38 78 22 108 -76 154
l-81 37 3 59 c4 100 -10 120 -106 144 -69 17 -86 38 -94 115 -8 82 -21 95 -94
94 -72 -2 -92 11 -110 76 -21 71 -42 85 -126 85 -76 0 -83 5 -115 84 -24 61
-41 66 -126 40 -70 -21 -77 -16 -118 69 -29 61 -57 70 -111 38 -53 -32 -79
-27 -129 25 -63 64 -84 71 -130 39 -51 -35 -79 -32 -140 17 -70 56 -106 57
-154 5 -18 -20 -40 -37 -47 -37 -8 0 -43 18 -79 40 -36 22 -71 40 -79 40 -7 0
-29 -16 -47 -36z m387 -94 c426 -42 756 -186 1079 -471 47 -41 80 -78 80 -89
0 -11 10 -24 23 -31 30 -16 87 -70 87 -84 0 -7 19 -32 41 -56 60 -64 91 -114
88 -141 -2 -13 30 -91 78 -188 112 -227 158 -378 189 -620 41 -332 -21 -718
-166 -1027 -256 -544 -744 -924 -1340 -1044 -99 -20 -146 -23 -335 -23 -233 0
-266 4 -472 60 -93 25 -273 93 -354 134 -180 92 -346 215 -505 375 -226 227
-390 526 -460 837 -9 40 -20 78 -25 84 -4 5 -6 20 -3 31 5 18 2 21 -15 16 -19
-5 -21 -1 -21 35 0 42 -15 66 -23 35 -2 -10 -7 17 -12 60 -5 54 -4 85 4 100 8
15 10 56 6 127 -11 179 -10 213 5 295 10 60 15 74 20 55 6 -24 7 -23 19 13 7
21 11 55 9 75 -5 36 8 102 21 112 15 12 41 70 41 94 0 28 72 198 115 272 15
25 49 70 76 100 27 30 55 70 64 90 40 96 297 353 436 435 24 15 82 50 129 79
87 54 235 124 350 166 111 40 245 68 420 88 147 17 223 18 351 6z m1696 -1572
c-3 -8 -6 -5 -6 6 -1 11 2 17 5 13 3 -3 4 -12 1 -19z m10 -50 c-3 -8 -6 -5 -6
6 -1 11 2 17 5 13 3 -3 4 -12 1 -19z m10 -60 c-3 -8 -6 -5 -6 6 -1 11 2 17 5
13 3 -3 4 -12 1 -19z m10 -320 c-1 -51 -3 -12 -3 87 0 99 2 141 3 93 2 -48 2
-129 0 -180z m-3800 55 c-2 -32 -3 -8 -3 52 0 61 1 87 3 58 2 -29 2 -78 0
-110z m3789 -210 c-8 -67 -56 -276 -62 -270 -3 2 7 50 20 107 14 56 28 129 32
161 4 32 9 59 12 59 2 0 2 -26 -2 -57z m-3759 -75 c-3 -7 -5 -2 -5 12 0 14 2
19 5 13 2 -7 2 -19 0 -25z m918 -1328 c159 -98 358 -175 565 -219 104 -23 127
-30 80 -25 -90 8 -276 57 -395 105 -106 42 -292 144 -341 186 -33 29 -28 26
91 -47z m758 -257 c-7 -2 -19 -2 -25 0 -7 3 -2 5 12 5 14 0 19 -2 13 -5z"/>
<path d="M2475 4889 c-288 -33 -427 -71 -640 -173 -306 -146 -524 -345 -739
-673 -78 -120 -122 -211 -164 -344 -192 -602 -59 -1286 336 -1734 147 -166
383 -347 567 -435 91 -43 299 -113 425 -142 106 -24 387 -35 511 -20 214 27
496 117 673 216 89 50 286 199 366 277 87 86 211 241 269 338 113 188 217 481
243 686 17 130 21 314 9 400 -5 44 -15 116 -20 160 -22 181 -146 481 -281 683
-124 185 -400 438 -585 534 -104 54 -312 143 -375 161 -82 24 -333 65 -430 70
-47 3 -121 1 -165 -4z m153 -151 c21 -21 13 -44 -22 -63 -29 -16 -37 -17 -50
-6 -19 16 -21 52 -4 69 7 7 24 12 38 12 14 0 31 -5 38 -12z m320 -40 c7 -7 12
-24 12 -39 0 -23 -5 -28 -35 -33 -43 -8 -55 -2 -55 29 0 44 50 71 78 43z
m-653 -23 c0 -13 -12 -26 -34 -37 -39 -20 -51 -16 -51 16 0 31 20 47 55 44 22
-2 30 -8 30 -23z m320 -149 c8 -68 3 -86 -21 -86 -11 0 -14 16 -14 68 0 38 3
72 7 75 15 16 22 3 28 -57z m-619 40 c3 -8 0 -24 -6 -36 -22 -42 -73 -10 -56
36 7 18 55 18 62 0z m1258 -2 c17 -44 -14 -73 -58 -52 -34 15 -33 44 2 56 39
15 49 14 56 -4z m-935 -61 c5 -10 15 -46 21 -81 11 -56 11 -65 -3 -79 -14 -14
-17 -14 -21 -2 -31 102 -37 133 -32 154 7 29 21 32 35 8z m583 -6 c7 -36 -25
-142 -42 -142 -21 0 -16 89 7 133 21 38 29 40 35 9z m-1165 -64 c23 -50 -19
-85 -73 -61 -28 13 -30 25 -8 56 19 27 69 30 81 5z m1779 -25 c5 -16 1 -27
-16 -40 -29 -24 -38 -23 -52 7 -8 19 -8 28 2 40 19 23 57 19 66 -7z m-1438
-36 c60 -119 130 -302 117 -302 -8 0 -108 177 -141 249 -26 57 -31 77 -23 87
17 21 22 17 47 -34z m1082 6 c0 -34 -154 -317 -166 -305 -5 5 81 238 107 290
22 42 59 52 59 15z m-450 -50 c60 -25 107 -72 136 -133 29 -61 30 -108 4 -177
-28 -74 -70 -122 -142 -157 -104 -52 -206 -37 -297 45 -27 24 -54 44 -60 44
-6 0 -18 25 -27 56 -18 64 -13 124 17 194 60 135 221 192 369 128z m-879 -45
c52 -59 166 -213 223 -303 l48 -75 -47 45 c-54 53 -195 213 -248 284 -29 38
-34 52 -26 62 16 19 22 18 50 -13z m1511 -100 c-56 -74 -240 -283 -249 -283
-13 0 120 201 195 293 45 55 59 67 84 67 l29 0 -59 -77z m-1808 35 c8 -13 5
-23 -14 -43 -28 -29 -33 -30 -54 -9 -19 19 -21 60 -3 68 23 9 60 1 71 -16z
m2186 -17 c0 -31 -4 -41 -20 -46 -29 -9 -40 2 -40 39 0 39 6 46 37 46 20 0 23
-5 23 -39z m-2020 -141 c55 -44 146 -125 203 -181 l102 -100 -105 71 c-58 38
-153 109 -211 157 -88 72 -105 91 -101 110 2 13 6 23 8 23 1 0 48 -36 104 -80z
m1893 50 c4 -15 -10 -33 -56 -73 -110 -95 -303 -234 -313 -225 -6 7 263 255
317 293 42 30 45 30 52 5z m-2237 -95 c3 -8 1 -30 -6 -50 -13 -41 -39 -46 -70
-15 -23 23 -24 33 -10 61 13 23 78 27 86 4z m2548 -28 c14 -22 -3 -51 -31 -55
-14 -2 -28 8 -44 29 l-22 32 23 19 c20 16 26 17 43 5 12 -8 26 -21 31 -30z
m-2381 -83 c68 -35 398 -236 394 -241 -11 -10 -410 181 -464 223 -27 20 -32
29 -23 39 12 15 31 11 93 -21z m2245 8 c-5 -27 -450 -250 -479 -240 -15 5 170
119 290 181 53 27 102 54 108 60 7 7 29 13 48 14 29 1 36 -2 33 -15z m-793
-367 c73 -170 152 -348 270 -610 138 -308 402 -961 391 -972 -5 -6 -133 220
-249 442 -92 176 -162 305 -301 557 -46 82 -76 108 -126 108 -49 0 -66 21
-127 155 -59 128 -181 414 -185 433 -2 8 23 22 70 37 l73 23 58 -116 c32 -65
86 -180 120 -257 89 -200 274 -559 290 -563 24 -8 6 36 -143 362 -243 527
-300 664 -285 682 14 18 19 9 144 -281z m-615 261 c0 -30 60 -86 130 -121 60
-31 62 -15 -22 -210 -33 -77 -81 -189 -105 -250 -25 -60 -53 -118 -63 -129
-10 -10 -40 -22 -66 -27 -84 -15 -88 -20 -395 -607 -75 -145 -144 -271 -152
-280 -8 -9 -29 -46 -47 -82 -45 -91 -82 -152 -87 -146 -15 15 238 630 554
1346 55 124 128 294 163 378 59 143 90 187 90 128z m1645 -18 c-11 -6 -28 -20
-37 -32 -17 -21 -18 -21 -18 0 0 27 19 44 50 44 24 -1 24 -1 5 -12z m-2781
-11 c17 -13 17 -15 2 -45 -13 -25 -23 -32 -45 -32 -48 0 -57 51 -13 74 34 19
34 19 56 3z m467 -175 c274 -103 154 -86 -213 29 -105 32 -128 43 -128 58 0
11 6 21 13 24 12 4 106 -28 328 -111z m2143 102 c25 -9 19 -31 -11 -42 -77
-28 -296 -92 -351 -102 -35 -6 -70 -14 -78 -17 -8 -3 -14 -1 -14 5 0 11 267
116 348 137 30 8 57 17 60 20 7 7 27 6 46 -1z m-2684 -159 c23 -21 14 -62 -17
-82 -22 -14 -25 -14 -43 2 -24 22 -26 52 -3 77 20 22 41 23 63 3z m2946 -10
c9 -36 0 -52 -35 -57 -27 -4 -31 -1 -36 24 -8 35 9 58 41 58 17 0 25 -7 30
-25z m-2695 -55 c74 -11 177 -31 229 -45 52 -13 106 -25 120 -28 17 -3 11 -5
-15 -5 -58 -2 -223 15 -352 35 -98 15 -113 20 -122 40 -13 28 -24 27 140 3z
m2542 5 c4 -8 3 -16 -1 -19 -28 -16 -402 -66 -487 -65 -44 1 -37 4 65 26 155
33 359 71 391 72 15 1 29 -6 32 -14z m-2833 -221 c0 -27 -5 -35 -24 -40 -40
-10 -61 -1 -64 27 -2 21 3 29 29 42 43 20 59 12 59 -29z m2985 27 c-3 -6 -11
-11 -17 -11 -6 0 -6 6 2 15 14 17 26 13 15 -4z m-2510 -22 c241 -17 225 -24
-68 -27 -204 -3 -277 0 -282 8 -4 7 -1 16 6 21 19 12 165 11 344 -2z m2283 1
c121 0 149 -13 51 -24 -57 -7 -497 5 -454 11 45 8 251 20 270 17 11 -2 71 -4
133 -4z m-263 -175 c6 -2 -17 -4 -50 -4 -33 0 -54 3 -48 7 12 7 74 5 98 -3z
m-2020 -10 c-91 -12 -311 -18 -274 -8 23 6 236 20 309 20 61 0 59 0 -35 -12z
m2215 -6 c47 -7 40 -7 -45 -6 -55 2 -109 8 -120 14 -16 9 -7 10 45 6 36 -3 90
-9 120 -14z m-1963 -176 c16 -24 16 -26 0 -37 -18 -14 -46 -89 -46 -121 1 -11
-10 -49 -24 -85 -29 -77 -53 -88 -87 -40 -22 32 -21 60 3 60 7 0 23 11 35 25
12 14 29 25 37 25 20 0 19 34 -1 54 -26 27 -49 18 -90 -34 -21 -27 -46 -49
-54 -47 -23 3 -202 195 -195 208 14 21 46 24 224 21 l181 -3 17 -26z m1907 27
c14 -5 26 -17 26 -27 0 -23 -109 -133 -133 -133 -9 0 -20 -8 -23 -17 -19 -62
-30 -63 -93 -2 -48 47 -54 51 -68 36 -14 -14 -13 -19 15 -55 17 -21 38 -45 47
-52 22 -18 18 -45 -9 -63 -22 -15 -25 -15 -39 1 -8 9 -18 35 -22 57 -9 51 -32
95 -49 95 -8 0 -22 21 -32 48 -9 26 -21 51 -26 57 -13 15 -9 32 10 41 9 5 89
11 177 14 88 3 168 7 177 8 9 1 28 -2 42 -8z m-1396 -380 c130 -126 240 -230
245 -230 5 0 96 83 201 184 299 287 320 304 297 244 -8 -20 -5 -32 13 -59 13
-19 31 -52 42 -74 10 -21 35 -56 56 -76 21 -20 45 -53 53 -73 8 -20 22 -36 30
-36 8 0 15 -6 15 -13 0 -13 -35 -47 -48 -47 -5 0 -21 -13 -37 -30 -16 -16 -34
-30 -40 -30 -24 0 -71 30 -109 69 -32 33 -43 38 -58 30 -10 -5 -18 -13 -18
-17 0 -4 27 -36 60 -72 33 -36 60 -74 60 -85 0 -12 -25 -47 -55 -79 -51 -53
-58 -57 -88 -51 -19 4 -52 27 -82 56 -53 52 -69 59 -79 34 -3 -9 8 -31 29 -54
19 -21 35 -44 35 -50 0 -6 7 -14 15 -17 10 -4 15 -19 15 -43 0 -34 -9 -46
-119 -152 -65 -62 -132 -124 -150 -137 -17 -13 -31 -30 -31 -39 0 -8 -4 -13
-9 -11 -14 5 -321 332 -321 341 0 5 27 39 60 75 63 70 68 80 48 100 -10 10
-28 -3 -85 -60 l-72 -72 -73 70 c-40 38 -74 75 -76 82 -2 7 26 44 62 83 64 69
75 99 36 99 -10 0 -45 -29 -76 -65 -32 -36 -60 -65 -64 -65 -14 0 -111 98
-102 104 6 3 48 79 95 169 69 132 84 168 80 195 -3 17 -2 32 2 32 4 0 113
-103 243 -230z m-1093 190 c8 -16 33 -40 54 -52 l39 -22 -36 -21 c-20 -11 -47
-38 -59 -60 -13 -23 -23 -33 -23 -23 0 27 -58 86 -92 93 l-31 7 44 22 c24 12
53 36 64 54 11 17 21 31 22 32 1 0 9 -13 18 -30z m2768 -55 l35 -19 -43 -28
c-24 -16 -50 -42 -57 -58 l-12 -29 -24 41 c-15 25 -39 46 -63 57 l-38 17 39
18 c22 10 48 32 61 52 l21 35 23 -33 c13 -19 39 -42 58 -53z m-230 -363 c-6
-2 -19 -14 -27 -27 l-16 -24 -27 27 -28 27 23 18 c12 10 22 25 22 34 0 10 11
3 33 -19 18 -18 27 -34 20 -36z m-2303 5 c0 -5 -10 -19 -21 -31 l-21 -22 -30
30 c-20 19 -26 32 -18 34 7 3 19 13 28 23 16 18 17 18 39 -3 13 -12 23 -26 23
-31z m447 -357 c13 -16 31 -30 39 -30 8 0 14 -4 14 -10 0 -5 -4 -10 -9 -10 -5
0 -23 -14 -40 -31 l-31 -31 -26 31 c-14 17 -32 31 -41 31 -8 0 1 15 24 39 21
21 39 39 41 40 2 0 15 -12 29 -29z m1363 21 c0 -5 14 -22 31 -39 30 -29 30
-31 11 -41 -12 -6 -29 -24 -38 -41 l-18 -29 -15 30 c-8 17 -25 36 -38 42 -26
11 -31 27 -9 27 8 0 25 13 38 29 23 30 38 39 38 22z m-1124 -293 c6 -1 -4 -17
-22 -34 -19 -17 -34 -25 -34 -18 0 7 -9 19 -21 28 l-21 14 21 21 c12 12 21 27
21 34 0 6 10 0 23 -15 12 -14 27 -28 33 -30z m902 -39 c-20 -26 -23 -28 -32
-12 -5 10 -16 23 -24 29 -12 8 -10 14 9 36 l23 26 23 -24 23 -25 -22 -30z"/>
<path d="M2523 4190 c-50 -30 -66 -63 -60 -118 10 -93 113 -142 194 -92 67 41
89 113 51 170 -13 19 -35 40 -48 47 -37 19 -101 16 -137 -7z"/>
<path d="M2250 905 c-83 -38 -121 -104 -128 -223 -9 -169 65 -261 211 -262 93
0 147 32 147 89 0 31 -14 33 -65 10 -110 -49 -185 12 -185 151 0 138 78 202
183 151 24 -11 46 -21 50 -21 4 0 7 18 7 40 0 32 -5 43 -27 57 -36 24 -147 28
-193 8z"/>
<path d="M614 897 c-2 -7 -3 -114 -2 -237 l3 -225 48 -3 47 -3 0 85 0 86 53 0
c109 0 177 64 177 167 0 41 -5 58 -27 84 -15 17 -42 38 -60 45 -43 19 -232 19
-239 1z m203 -93 c20 -20 24 -31 19 -57 -9 -44 -27 -58 -80 -64 l-46 -6 0 77
0 76 40 0 c31 0 47 -7 67 -26z"/>
<path d="M1014 897 c-2 -7 -3 -114 -2 -237 l3 -225 48 -3 47 -3 0 100 c0 100
0 101 24 101 38 0 64 -30 100 -115 l33 -80 52 -3 c40 -2 51 0 51 12 0 23 -69
168 -91 192 -19 20 -19 21 6 34 58 31 79 123 39 177 -37 50 -77 63 -197 63
-78 0 -109 -4 -113 -13z m213 -83 c37 -51 -6 -114 -78 -114 l-39 0 0 71 0 72
52 -5 c34 -4 56 -12 65 -24z"/>
<path d="M1444 897 c-2 -7 -3 -114 -2 -237 l3 -225 48 -3 47 -3 0 240 0 241
-45 0 c-28 0 -48 -5 -51 -13z"/>
<path d="M1644 897 c-2 -7 -3 -114 -2 -237 l3 -225 43 -3 42 -3 0 183 0 183
81 -160 c100 -196 107 -205 171 -205 41 0 48 3 53 23 3 12 4 119 3 237 l-3
215 -42 3 -43 3 0 -168 0 -168 -81 155 c-44 85 -85 161 -91 168 -14 17 -127
16 -134 -1z"/>
<path d="M2545 898 c-3 -8 -4 -115 -3 -238 l3 -225 140 0 140 0 0 35 0 35 -92
3 -93 3 0 64 0 65 80 0 80 0 0 35 0 35 -80 0 -80 0 0 60 0 59 93 3 92 3 0 35
0 35 -138 3 c-106 2 -139 0 -142 -10z"/>
<path d="M3084 897 c-2 -7 -3 -114 -2 -237 l3 -225 48 -3 47 -3 0 105 0 106
90 0 90 0 0 -106 0 -105 48 3 47 3 0 235 0 235 -47 3 -48 3 0 -95 0 -96 -90 0
-90 0 0 95 0 95 -45 0 c-28 0 -48 -5 -51 -13z"/>
<path d="M3669 883 c-32 -83 -149 -427 -149 -440 0 -11 11 -13 47 -11 46 3 46
3 63 53 l17 50 89 3 90 3 18 -56 17 -55 50 0 c40 0 49 3 49 18 0 9 -36 116
-79 237 l-78 220 -61 3 c-60 3 -63 2 -73 -25z m102 -180 l28 -83 -64 0 -63 0
31 95 c18 53 34 90 36 83 2 -7 17 -50 32 -95z"/>
<path d="M4024 897 c-2 -7 -3 -114 -2 -237 l3 -225 130 0 130 0 0 35 0 35 -82
3 -83 3 0 199 0 200 -45 0 c-28 0 -48 -5 -51 -13z"/>
<path d="M4344 897 c-2 -7 -3 -114 -2 -237 l3 -225 130 0 130 0 0 35 0 35 -82
3 -83 3 0 199 0 200 -45 0 c-28 0 -48 -5 -51 -13z"/>
<path d="M609 311 c-18 -14 -23 -31 -27 -80 -3 -37 1 -73 8 -92 27 -64 109
-59 131 8 18 55 7 142 -21 165 -28 23 -62 23 -91 -1z m69 -89 c3 -70 -10 -101
-34 -81 -9 7 -14 33 -14 74 0 66 5 77 30 73 11 -2 16 -19 18 -66z"/>
<path d="M760 216 c0 -109 1 -116 20 -116 18 0 20 7 21 68 0 37 3 60 6 52 3
-8 14 -39 25 -67 16 -44 23 -53 44 -53 l25 0 -3 112 c-3 97 -5 113 -20 116
-14 3 -18 -7 -20 -65 l-3 -67 -25 64 c-19 50 -30 66 -47 68 -23 3 -23 2 -23
-112z"/>
<path d="M940 215 l0 -115 60 0 c53 0 60 2 60 20 0 17 -7 20 -40 20 l-40 0 0
95 c0 88 -1 95 -20 95 -19 0 -20 -7 -20 -115z"/>
<path d="M1070 215 c0 -108 1 -115 20 -115 19 0 20 7 20 115 0 108 -1 115 -20
115 -19 0 -20 -7 -20 -115z"/>
<path d="M1150 216 c0 -109 1 -116 20 -116 18 0 20 7 21 68 0 37 3 60 6 52 3
-8 14 -39 25 -67 16 -44 23 -53 44 -53 l25 0 -3 112 c-3 97 -5 113 -20 116
-14 3 -18 -7 -20 -65 l-3 -67 -25 64 c-19 50 -30 66 -47 68 -23 3 -23 2 -23
-112z"/>
<path d="M1330 215 l0 -115 60 0 c53 0 60 2 60 20 0 17 -7 20 -40 20 -38 0
-40 2 -40 30 0 28 3 30 35 30 28 0 35 4 35 20 0 16 -7 20 -35 20 -28 0 -35 4
-35 19 0 16 8 20 38 23 29 2 37 7 37 23 0 17 -8 20 -57 23 l-58 3 0 -116z"/>
<path d="M1540 216 c0 -109 1 -116 20 -116 17 0 20 7 20 45 0 37 3 45 19 45
15 0 20 -10 25 -45 6 -36 11 -45 27 -45 16 0 19 7 19 41 0 22 -5 49 -10 59 -7
13 -7 21 0 25 16 10 12 71 -5 85 -9 7 -38 15 -65 18 l-50 5 0 -117z m85 44 c0
-18 -6 -26 -22 -28 -20 -3 -23 1 -23 28 0 27 3 31 23 28 16 -2 22 -10 22 -28z"/>
<path d="M1700 215 l0 -115 60 0 c53 0 60 2 60 20 0 17 -7 20 -40 20 -38 0
-40 2 -40 30 0 28 3 30 35 30 28 0 35 4 35 20 0 16 -7 20 -35 20 -28 0 -35 4
-35 19 0 16 8 20 38 23 29 2 37 7 37 23 0 17 -8 20 -57 23 l-58 3 0 -116z"/>
<path d="M1860 310 c-26 -26 -33 -59 -28 -127 6 -64 35 -100 72 -88 12 4 34 6
49 6 l28 -1 -3 62 -3 63 -37 3 c-33 3 -38 0 -38 -17 0 -12 7 -21 15 -21 16 0
19 -17 9 -44 -8 -21 -30 -21 -38 0 -3 9 -6 37 -6 64 0 27 3 55 6 64 8 20 33
21 40 1 4 -8 15 -15 25 -15 27 0 24 35 -3 54 -30 22 -64 20 -88 -4z"/>
<path d="M2010 215 c0 -108 1 -115 20 -115 19 0 20 7 20 115 0 108 -1 115 -20
115 -19 0 -20 -7 -20 -115z"/>
<path d="M2100 310 c-37 -37 -18 -85 48 -119 26 -14 29 -49 6 -58 -11 -4 -23
2 -34 17 -23 30 -54 21 -41 -12 19 -54 101 -58 131 -6 19 35 2 71 -45 99 -20
12 -35 29 -35 40 0 22 28 26 36 4 4 -8 15 -15 25 -15 27 0 24 35 -3 54 -31 22
-64 20 -88 -4z"/>
<path d="M2224 316 c-8 -21 3 -36 27 -36 17 0 19 -8 19 -90 0 -83 1 -90 20
-90 19 0 20 7 20 89 0 85 1 90 23 93 14 2 22 10 22 23 0 18 -8 20 -63 23 -48
2 -64 0 -68 -12z"/>
<path d="M2380 216 c0 -109 1 -116 20 -116 17 0 20 7 20 45 0 37 3 45 19 45
15 0 20 -10 25 -45 6 -36 11 -45 27 -45 16 0 19 7 19 41 0 22 -5 49 -10 59 -7
13 -7 21 0 25 16 10 12 71 -5 85 -9 7 -38 15 -65 18 l-50 5 0 -117z m85 44 c0
-18 -6 -26 -22 -28 -20 -3 -23 1 -23 28 0 27 3 31 23 28 16 -2 22 -10 22 -28z"/>
<path d="M2530 320 c0 -5 11 -38 25 -72 14 -34 25 -81 25 -105 0 -39 2 -43 25
-43 23 0 25 4 25 43 0 24 11 71 25 105 30 74 31 82 5 82 -14 0 -24 -13 -37
-50 l-18 -50 -16 47 c-11 35 -21 49 -37 51 -12 2 -22 -2 -22 -8z"/>
<path d="M2779 311 c-18 -14 -23 -31 -27 -80 -3 -37 1 -73 8 -92 27 -64 109
-59 131 8 18 55 7 142 -21 165 -28 23 -62 23 -91 -1z m69 -89 c3 -70 -10 -101
-34 -81 -9 7 -14 33 -14 74 0 66 5 77 30 73 11 -2 16 -19 18 -66z"/>
<path d="M2930 215 c0 -108 1 -115 20 -115 17 0 20 7 20 45 0 45 0 45 35 45
28 0 35 4 35 20 0 16 -7 20 -35 20 -30 0 -35 3 -35 24 0 21 5 25 38 28 29 2
37 7 37 23 0 17 -8 20 -57 23 l-58 3 0 -116z"/>
<path d="M3130 215 c0 -108 1 -115 20 -115 18 0 20 7 21 58 l2 57 9 -57 c9
-51 13 -58 33 -58 19 0 24 8 32 53 l10 52 2 -52 c1 -50 3 -53 26 -53 l26 0 -3
113 -3 112 -30 0 c-29 0 -30 -3 -44 -65 l-15 -65 -8 45 c-15 88 -16 90 -48 90
l-30 0 0 -115z"/>
<path d="M3350 215 l0 -115 60 0 c53 0 60 2 60 20 0 17 -7 20 -40 20 -38 0
-40 2 -40 30 0 28 3 30 35 30 28 0 35 4 35 20 0 16 -7 20 -35 20 -28 0 -35 4
-35 19 0 16 8 20 38 23 29 2 37 7 37 23 0 17 -8 20 -57 23 l-58 3 0 -116z"/>
<path d="M3490 216 c0 -109 1 -116 20 -116 17 0 20 7 20 45 0 37 3 45 19 45
15 0 20 -10 25 -45 6 -36 11 -45 27 -45 16 0 19 7 19 41 0 22 -5 49 -10 59 -7
13 -7 21 0 25 16 10 12 71 -5 85 -9 7 -38 15 -65 18 l-50 5 0 -117z m85 44 c0
-18 -6 -26 -22 -28 -20 -3 -23 1 -23 28 0 27 3 31 23 28 16 -2 22 -10 22 -28z"/>
<path d="M3692 323 c-37 -15 -56 -139 -29 -192 18 -37 63 -48 96 -24 31 24 41
63 16 63 -9 0 -25 -10 -36 -22 -16 -20 -20 -21 -29 -8 -6 8 -9 44 -8 80 2 51
6 65 20 68 9 2 19 -5 23 -17 8 -28 45 -28 45 -1 0 42 -54 71 -98 53z"/>
<path d="M3810 215 c0 -108 1 -115 20 -115 17 0 20 7 20 50 0 47 2 50 25 50
23 0 25 -3 25 -50 0 -47 2 -50 25 -50 l26 0 -3 113 c-3 104 -4 112 -23 112
-16 0 -21 -8 -23 -42 -3 -38 -6 -43 -28 -43 -22 0 -24 4 -24 45 0 38 -3 45
-20 45 -19 0 -20 -7 -20 -115z"/>
<path d="M4010 308 c-8 -19 -50 -190 -50 -204 0 -2 11 -4 25 -4 20 0 25 5 25
26 0 22 4 25 28 22 19 -2 28 -9 30 -25 2 -17 10 -23 27 -23 28 0 28 3 -9 145
-18 68 -24 80 -43 83 -16 2 -26 -4 -33 -20z m40 -94 c0 -13 -6 -24 -13 -24 -9
0 -12 10 -9 30 5 35 22 30 22 -6z"/>
<path d="M4140 216 c0 -109 1 -116 20 -116 18 0 20 7 21 68 0 37 3 60 6 52 3
-8 14 -39 25 -67 16 -44 23 -53 44 -53 l25 0 -3 112 c-3 97 -5 113 -20 116
-14 3 -18 -7 -20 -65 l-3 -67 -25 64 c-19 50 -30 66 -47 68 -23 3 -23 2 -23
-112z"/>
<path d="M4304 316 c-8 -21 3 -36 27 -36 17 0 19 -8 19 -90 0 -83 1 -90 20
-90 19 0 20 7 20 89 0 85 1 90 23 93 14 2 22 10 22 23 0 18 -8 20 -63 23 -48
2 -64 0 -68 -12z"/>
<path d="M4470 310 c-37 -37 -18 -85 48 -119 26 -14 29 -49 6 -58 -11 -4 -23
2 -34 17 -23 30 -54 21 -41 -12 19 -54 101 -58 131 -6 19 35 2 71 -45 99 -20
12 -35 29 -35 40 0 22 28 26 36 4 4 -8 15 -15 25 -15 27 0 24 35 -3 54 -31 22
-64 20 -88 -4z"/>
</g>
</svg>
